<svg xmlns="http://www.w3.org/2000/svg" id="Ebene_1" viewBox="0 0 506.5 60.656"><style>.st0{fill:#FFFFFF;}</style><path d="M6.6 44.3c-1.8-1-2.3-3.2-.8-5.2 1.5-2 3.3-1.7 5.3-.8 2.8 1.2 5.6 2.7 8.4 2.8 1.8 0 4.7-2 5.2-3.6s-1-4.6-2.5-5.8c-2.3-2-5.6-3-8.4-4.5-4.3-2-8-4.8-8.6-10C4 10 8.2 4.3 15.8 3.4 19.4 3 23.4 4 27 5c2.3.4 3.5 2.4 2.6 5-1 2.4-3 2.3-5.4 1.7-2-.6-4.4-1.3-6.5-1-1.6.3-3.8 2-4.2 3.4-.5 1.6.4 4.3 1.6 5.3 2.7 2 6 3.3 9 4.8 4 2 7.6 4.3 8.8 9 2.2 8.6-5 15.8-14.6 15.7-5.7 0-8-2.3-11.6-4.4zM105.8 47.8v8c0 2.6-.6 5-3.7 5-2.8-.2-3.4-2.3-3.4-5 0-10.6 0-21.4.2-32 0-1.7 1.2-4 2.5-4.7 1.2-.4 3.3 1 6 2 4.8-3 10.7-3.8 16.2 1.3 4.3 4 5.5 12 2.7 17.8-4 8.7-11.5 9.8-20.4 7.8zm0-13.4c0 6.7 1.8 8.5 7.7 7.5 4.5-.8 7-5 6.3-10.3-.7-4.3-4.2-6.8-8.6-6-4.3.5-5.4 2.4-5.4 8.7zM255.6 34c0 8.8-6.7 15-16 14.7-8.8 0-15-6.4-15-15 0-8.8 6.5-15 15.6-15 9.2 0 15.5 6.4 15.4 15.3zM240 25.5c-4.5 0-7.7 3.3-7.7 8 0 5 3 8.4 7.6 8.5 4.5 0 7.8-3 8-8 0-5-3.2-8.5-8-8.5zM70 36c.6 3.8 3 5.2 6 5.7 2 .4 4 0 6.2-.3 2.2-.4 5-2 5.8 1.3.8 3-2 4-4.2 4.8-8 3-16.6.2-20-6.7-3.5-7.2-1-16.2 5.5-20C79 15.3 90 20.8 91 31.6c0 3.3-1.2 4.5-4.4 4.4H70zm-.3-5.5h14c-.8-3.6-3-5-6.2-5-3.6 0-6.5 1-7.8 5zM306.2 36c.7 3.8 3 5.3 6 5.8 2 .3 4 0 6-.3s4.8-2.5 6 1c1 3.5-2.2 4.3-4.6 5-8 3-16.6 0-19.7-7-3.4-7.3-.8-16 5.7-19.7 9.7-5.6 21.2.4 21.5 11.3 0 2.7-1 4-3.7 4h-17.3zm-.3-5.5h14c-.8-3.6-3-5-6.2-5-3.7 0-6.6 1-8 5zM465 36c1 4.7 4.6 6.7 10 6 1.2-.2 2.3-1 3.3-1 1.4.2 2.8.7 4.2 1-.6 1.5-.7 3.6-1.8 4.4-5.4 3.8-14.8 2.8-19.5-1.8-4.7-4.6-5.6-13.2-2-19 3.4-5.7 10.7-8.2 17.4-6 5.5 1.7 8.8 6.3 9 12.3.2 2.8-1 4-4 4H465zm13.3-5.4c-.6-4-3-5-6-5-4.5-.3-6.4 1-7.6 5h13.6zM349 46.3c-4.7 3.2-9.8 3.4-13.3 0-3-2.6-3.6-7.7-1.5-11.6 2.4-4.4 7-5.4 15.3-3.4.4-4.8-1.8-6.5-7.3-5.7-2.3.3-5.4 2.3-6-1.7-.7-3.6 2.7-4 5-4.6 10-2.5 15.5 1.8 15.5 11.8 0 4.3.3 8.5 0 12.7-.2 1.5-1 3.7-2.4 4.4-1 .4-3-1-5.2-2zm-3.4-11.8c-3 1-5.4 1.3-5.3 4.3 0 2.6 2 3.3 4.3 3.2 2.6-.2 5.5-.7 5-4 0-1.3-2.6-2.3-4-3.5zM176 21c1.2-.6 3.2-1.7 5.4-2 7.5-1.5 13 3 13.4 10.7.2 5 0 9.8 0 14.6 0 2.5-1 4.3-3.5 4.4-2.7 0-3.7-2-3.8-4.2V32c0-2.6-.7-5-3.4-6-3-1-5.7-.7-8 1.4-.7.7-1 2-1.2 3.3V44c0 2.7-.8 4.8-3.7 4.7-2.8-.2-3.4-2.3-3.4-4.8 0-6.7 0-13.4.2-20 0-1.7 1-4.3 2.3-4.7 1.5-.6 3.6.8 6 1.6zM445 19.3c2.8.7 7-1 7 3.6s-4.3 2.7-7.4 3.6v15c0 1.3.4 2.7 0 3.7-1 1.3-2.3 3-3.5 3.2-1 0-3-1.6-3.4-2.8-.6-2.7-.4-5.5-.4-8.2 0-8.3 0-16.5.4-24.7.4-7.8 7.2-12 14.4-9 1 .4 2.3 2 2.2 3 0 1-1.6 2.6-2.8 2.8-7 1.3-7.5 2-6.4 9.7zM48 19c3.3 1.4 8.8-1.5 8.7 4 0 5.3-5.5 2.2-8.8 3.8 0 3.8-.3 8 0 12 0 2.5 1.6 4 4.5 3.4 2-.4 4.6-.5 4.7 2 0 1.3-2 3.3-3.6 4-7.4 2.4-12.4-1-12.8-9-.4-7.3-.3-14.8-.4-22.3 0-2.7.3-5.5 3.6-5.6 3.7 0 4 2.7 4 5.5-.2.6 0 1.4 0 2zM406.3 23v14.5c0 2.7.6 4.6 4 4.6 1 0 2.6 1.6 2.6 2.4 0 1.2-1 3-2 3.5-6 3-12-.5-12-7.2-.2-11 0-22.2 0-33.3 0-2.5 1-4.3 3.5-4.4 2.7 0 3.8 2 3.8 4.6V23zM210.2 19.5c2 0 4-.4 5.5.2 1.4.5 2.4 2 3.5 3.2-1 1-2 2.6-3.5 3-1.5.7-3.4.2-5.5.2 0 4.5-.2 8.7 0 12.8.2 2.5 1.8 3.8 4.5 3.3 2-.5 4.5-.7 4.6 2 0 1.2-2 3.2-3.5 3.7-7.5 2.6-12.6-1-13-9V17c0-2.7 0-5.7 3.7-5.7 3.5 0 3.4 3 3.5 5.5 0 .7 0 1.5.2 2.7zM365.5 24.4v-17c0-2.3.7-4.2 3.3-4.3 2.8 0 3.8 2 3.8 4.5V36c0 3.3 0 6.4 4.7 6.2.7 0 2 1.4 2 2 0 1.3-.6 3-1.5 3.5-5.4 3.5-12 0-12.3-6.5V24.4zM285.4 20.7C287 20 289 19 291 19c1.3 0 3.3 1.7 3.4 2.8.2 1-1.6 2.5-2.8 3.5-.4.4-1.4.2-2 .2-3.6 0-5 1.8-5 5v13.2c0 2.7-.7 5-3.8 5-3 0-3.6-2.4-3.6-5 0-6.6 0-13 .2-19.5 0-1.8 1.2-4.2 2.6-5 1-.6 3.3.8 5.4 1.5zM427 34v10.3c0 2.5-1 4.6-4 4.4-2.6-.2-3.4-2.2-3.3-4.6V23.3c0-2.5 1-4.3 3.5-4.4 2.7 0 3.7 2 3.8 4.2v11zM495.2 17.4v-10c0-2.6 1-4.3 3.7-4.3 2.4 0 4 1.7 4 4v21.3c-.2 2.4-1.7 4-4.2 4-2.6-.3-3.6-2-3.6-4.5V17.4zM150.3 33.4V23c0-2.5 1-4.3 3.8-4.2 2.5 0 3.4 2 3.5 4v21.8c0 2.4-1 4.2-3.8 4-2.5 0-3.4-1.8-3.4-4V33.4zM503.8 43.4c-.3 2.4-1.6 4.4-4.6 4.6-2.7 0-5.2-2.3-5-5 .2-3 2-4.5 4.8-4.7 2.6-.2 4.8 2.2 4.8 5zM427.6 8c-.2 4-1.6 5.6-4.4 5.4-2.7 0-4.3-1.8-4.2-4.7 0-3 2-4.2 4.7-4 2.5 0 4 1.7 4 3.4zM158 9c0 2.8-1.4 4.5-4.2 4.4-2.5 0-4-1.6-4.2-4.4 0-3 1.8-4.4 4.4-4.4 2.6 0 4.2 1.5 4 4.3z" class="st0"/></svg>