<svg xmlns="http://www.w3.org/2000/svg" viewBox="0 0 384.6 110.4"><style>.st0{fill:#FFFFFF;}</style><path d="M15.5 50.3v27.5c0 3.8-1.8 6.5-5 7.4-4.3 1.3-8.5-1.4-9.2-6v-2-65.4c0-4.6 2-7.5 5.5-8.2 4.8-1 8.6 2 8.7 7.3v25.7h36.8v-4.3-22c0-4.3 3-7 7.3-7 4 .2 7 3 7 7.2v67.8c0 4.2-3 7-7 7-4 .2-7.2-2.7-7.3-7V53.8v-3.5H15.5zM233 83.5c0 6 .2 11.6 0 17.2 0 4.2-2.7 7-6.5 7-3.2 0-5.8-2-6.4-5.3-.2-1.2-.2-2.6-.2-4V42.3v-3c.5-4.4 2-6.5 5.6-7 3.6-.7 6.2 1 8 5 5-4 10.7-6 17-5.6 9.5.5 16.3 5.2 20 14 4.6 11.6 2.7 26.5-8 34.7-8.3 6.2-17.4 6.8-27 4l-2.3-.8zm0-23.6v4.7c0 6.6 1.3 8 8 8.7h4c6.6-.4 11-4 12.8-10 2-6.6 0-13.7-4.7-17-4.4-3.4-11.4-3-16.7.5-2.3 1.4-3.6 3-3.3 6 .3 2.3 0 4.6 0 7zM179.8 2.7c5.7.2 11.2.8 16 3.8 4.2 2.5 5.2 5.8 3.2 9.3-1.8 3-4.6 3.8-8.6 2.6-3.6-1-7.3-2-11-2.2-4.6-.3-8.2 2-9.4 5.6-1.5 4-.3 8.3 3.7 11 3.6 2.5 7.6 4.4 11.5 6.3 6 3 12.2 5.6 16.5 11 7 9.3 5 23-4.2 30-11.5 8.5-29.5 7.7-40-2-3.2-2.7-3.7-6.2-1.3-9.5 2-2.8 5.4-3.4 9-1.5l7 4c4.3 2 8.8 2.3 13.2.4 6.4-2.8 7.8-10.8 2.2-15-4-3-8.6-5.4-13.2-7.6-5.8-3-11.6-5.7-15.7-11-7.8-10.2-4.5-26 7-31.6 4.4-2 9.3-3 14-4.3v.7zM311.3 31.8c19.5 0 32.2 16.4 27 35-2.8 10.3-12.3 18-23.7 19-10 .7-19-1.6-25.6-9.6-7-8.5-8-18.3-4-28.2 4-10 12.3-15 23-16.2h3.3zm14 27.2c0-8.6-6-15-14.2-15-8 0-14 6-14 14.6 0 8.5 5.7 14.7 13.8 15 8.5 0 14.3-5.8 14.4-14.6zM365 33h9.5c4.2 0 7 2.6 7 6 0 3.7-2.8 6-7 6h-9c0 8-.4 15.7 0 23.3.2 4 2.2 5 6 5 1.7 0 3.3-.2 5-.3 2.4-.2 4.4.7 5.4 3.2.8 2.6.2 5-2 6.4-6 3.7-12.7 4.2-19.3 2-5.7-2.2-7.8-7.2-8.4-12.7-.6-5.6-.6-11.2-.7-16.8v-30c0-4.2 2.8-6.8 7-6.7 3.7 0 6 2.7 6.2 6.8V30c0 1 0 1.7.2 3zM138 30.3v19c0 4.3-2.7 7.2-6.8 7.4-4 .2-7.2-2.5-7.3-7-.3-13-.3-26.3 0-39.5 0-4.4 3-7 7.4-6.7 4 .2 6.6 3 6.6 7.4v19.3zM102.7 59v19.5c0 4.2-2.5 6.8-6.2 7-4 .2-7-2.6-7-6.7v-40c0-4.2 3.2-7 7-6.8 3.7.2 6.2 3 6.2 7v20zM131.2 85.2c-5 0-9-4-9.2-9 0-4.7 4-8.6 9-8.7 4.6 0 8.6 4 8.7 8.5 0 5-4 9-8.5 9.2zM104 14.3c0 5-3.2 8-7.8 8-4.8 0-8-3.4-8-8.2 0-4.4 3.4-7.5 8-7.5 4.7 0 7.8 3.2 7.7 7.8z" class="st0"/></svg>