<svg xmlns="http://www.w3.org/2000/svg" viewBox="-82 185 96 96">
  <style>
    .st0{fill:none;stroke:#ffffff;stroke-width:7;stroke-linecap:round;stroke-linejoin:round;stroke-miterlimit:10;}
  </style>
  <path d="M-61 245.5c.4-1.8 4-4.4 12.8-7 3-1 5.4-2.8 6.5-5.4 1-2.2.7-5-1-7-1.3-2-3-4.6-3.6-8.5-1-5 0-9 2.8-11.6 2.3-2 5.4-3 9.7-3s7.4 1 9.7 3c2.5 2.5 3.6 6.7 2.5 11.5-1 4-2.3 6.5-3.7 8.5-1.7 2-2 4.7-1 7.2 1 2.6 3.5 4.5 6.5 5.5 8.4 2.5 12 5 12.6 7 0 0 3.2 11.4.2 15.2s-50.4 3.6-54.4 0 0-15.4 0-15.4z" class="st0"/>
</svg>
